<svg id="visual" viewBox="0 0 1920 1080" width="1920" height="1080" xmlns="http://www.w3.org/2000/svg" xmlns:xlink="http://www.w3.org/1999/xlink" version="1.1"><rect x="0" y="0" width="1920" height="1080" fill="#fff77a"></rect><path d="M417 0L371.3 30C325.7 60 234.3 120 210.2 180C186 240 229 300 239.2 360C249.3 420 226.7 480 234.2 540C241.7 600 279.3 660 320.7 720C362 780 407 840 422.7 900C438.3 960 424.7 1020 417.8 1050L411 1080L0 1080L0 1050C0 1020 0 960 0 900C0 840 0 780 0 720C0 660 0 600 0 540C0 480 0 420 0 360C0 300 0 240 0 180C0 120 0 60 0 30L0 0Z" fill="#f7870f" stroke-linecap="round" stroke-linejoin="miter"></path></svg>