<svg id="visual" viewBox="0 0 1920 1080" width="1920" height="1080" xmlns="http://www.w3.org/2000/svg" xmlns:xlink="http://www.w3.org/1999/xlink" version="1.1"><rect x="0" y="0" width="1920" height="1080" fill="#F7770F"></rect><path d="M832 1080L843 1060C854 1040 876 1000 847.3 960C818.7 920 739.3 880 753.7 840C768 800 876 760 955.7 720C1035.3 680 1086.7 640 1130 600C1173.3 560 1208.7 520 1136.3 480C1064 440 884 400 887.3 360C890.7 320 1077.3 280 1151.7 240C1226 200 1188 160 1193.5 120C1199 80 1248 40 1272.5 20L1297 0L1920 0L1920 20C1920 40 1920 80 1920 120C1920 160 1920 200 1920 240C1920 280 1920 320 1920 360C1920 400 1920 440 1920 480C1920 520 1920 560 1920 600C1920 640 1920 680 1920 720C1920 760 1920 800 1920 840C1920 880 1920 920 1920 960C1920 1000 1920 1040 1920 1060L1920 1080Z" fill="#fff77a" stroke-linecap="round" stroke-linejoin="miter"></path></svg>