<svg id="visual" viewBox="0 0 1920 1080" width="1920" height="1080" xmlns="http://www.w3.org/2000/svg" xmlns:xlink="http://www.w3.org/1999/xlink" version="1.1"><rect x="0" y="0" width="1920" height="1080" fill="#ffffff"></rect><defs><linearGradient id="grad1_0" x1="43.8%" y1="0%" x2="100%" y2="100%"><stop offset="14.444444444444446%" stop-color="#fd9800" stop-opacity="1"></stop><stop offset="85.55555555555554%" stop-color="#fd9800" stop-opacity="1"></stop></linearGradient></defs><defs><linearGradient id="grad1_1" x1="43.8%" y1="0%" x2="100%" y2="100%"><stop offset="14.444444444444446%" stop-color="#fd9800" stop-opacity="1"></stop><stop offset="85.55555555555554%" stop-color="#ffffff" stop-opacity="1"></stop></linearGradient></defs><defs><linearGradient id="grad2_0" x1="0%" y1="0%" x2="56.3%" y2="100%"><stop offset="14.444444444444446%" stop-color="#fd9800" stop-opacity="1"></stop><stop offset="85.55555555555554%" stop-color="#fd9800" stop-opacity="1"></stop></linearGradient></defs><defs><linearGradient id="grad2_1" x1="0%" y1="0%" x2="56.3%" y2="100%"><stop offset="14.444444444444446%" stop-color="#ffffff" stop-opacity="1"></stop><stop offset="85.55555555555554%" stop-color="#fd9800" stop-opacity="1"></stop></linearGradient></defs><g transform="translate(1920, 0)"><path d="M0 594C-107.3 580.4 -214.6 566.8 -297 514.4C-379.4 462 -437 370.7 -482.4 278.5C-527.7 186.3 -560.9 93.1 -594 0L0 0Z" fill="#ffcb8f"></path><path d="M0 297C-53.6 290.2 -107.3 283.4 -148.5 257.2C-189.7 231 -218.5 185.4 -241.2 139.3C-263.9 93.1 -280.4 46.6 -297 0L0 0Z" fill="#fd9800"></path></g><g transform="translate(0, 1080)"><path d="M0 -594C113.1 -583.8 226.1 -573.5 297 -514.4C367.9 -455.3 396.6 -347.4 439.1 -253.5C481.5 -159.6 537.8 -79.8 594 0L0 0Z" fill="#ffcb8f"></path><path d="M0 -297C56.5 -291.9 113.1 -286.8 148.5 -257.2C183.9 -227.7 198.3 -173.7 219.5 -126.8C240.8 -79.8 268.9 -39.9 297 0L0 0Z" fill="#fd9800"></path></g></svg>