<svg id="visual" viewBox="0 0 1920 1080" width="1920" height="1080" xmlns="http://www.w3.org/2000/svg" xmlns:xlink="http://www.w3.org/1999/xlink" version="1.1"><rect x="0" y="0" width="1920" height="1080" fill="#ffffff"></rect><defs><linearGradient id="grad1_0" x1="43.8%" y1="100%" x2="100%" y2="0%"><stop offset="14.444444444444446%" stop-color="#fd9800" stop-opacity="1"></stop><stop offset="85.55555555555554%" stop-color="#fd9800" stop-opacity="1"></stop></linearGradient></defs><defs><linearGradient id="grad1_1" x1="43.8%" y1="100%" x2="100%" y2="0%"><stop offset="14.444444444444446%" stop-color="#fd9800" stop-opacity="1"></stop><stop offset="85.55555555555554%" stop-color="#ffcb8f" stop-opacity="1"></stop></linearGradient></defs><defs><linearGradient id="grad1_2" x1="43.8%" y1="100%" x2="100%" y2="0%"><stop offset="14.444444444444446%" stop-color="#ffffff" stop-opacity="1"></stop><stop offset="85.55555555555554%" stop-color="#ffcb8f" stop-opacity="1"></stop></linearGradient></defs><defs><linearGradient id="grad2_0" x1="0%" y1="100%" x2="56.3%" y2="0%"><stop offset="14.444444444444446%" stop-color="#fd9800" stop-opacity="1"></stop><stop offset="85.55555555555554%" stop-color="#fd9800" stop-opacity="1"></stop></linearGradient></defs><defs><linearGradient id="grad2_1" x1="0%" y1="100%" x2="56.3%" y2="0%"><stop offset="14.444444444444446%" stop-color="#ffcb8f" stop-opacity="1"></stop><stop offset="85.55555555555554%" stop-color="#fd9800" stop-opacity="1"></stop></linearGradient></defs><defs><linearGradient id="grad2_2" x1="0%" y1="100%" x2="56.3%" y2="0%"><stop offset="14.444444444444446%" stop-color="#ffcb8f" stop-opacity="1"></stop><stop offset="85.55555555555554%" stop-color="#ffffff" stop-opacity="1"></stop></linearGradient></defs><g transform="translate(1920, 1080)"><path d="M-648 0C-612.5 -57 -577 -114.1 -564 -183.2C-551 -252.4 -560.5 -333.7 -524.2 -380.9C-488 -428.1 -405.9 -441.3 -346.2 -476.5C-286.5 -511.7 -249.3 -568.8 -195.3 -601.1C-141.3 -633.3 -70.7 -640.7 0 -648L0 0Z" fill="#ffe5c6"></path><path d="M-432 0C-408.3 -38 -384.6 -76.1 -376 -122.2C-367.3 -168.3 -373.7 -222.4 -349.5 -253.9C-325.3 -285.4 -270.6 -294.2 -230.8 -317.7C-191 -341.1 -166.2 -379.2 -130.2 -400.7C-94.2 -422.2 -47.1 -427.1 0 -432L0 0Z" fill="#ffb156"></path><path d="M-216 0C-204.2 -19 -192.3 -38 -188 -61.1C-183.7 -84.1 -186.8 -111.2 -174.7 -127C-162.7 -142.7 -135.3 -147.1 -115.4 -158.8C-95.5 -170.6 -83.1 -189.6 -65.1 -200.4C-47.1 -211.1 -23.6 -213.6 0 -216L0 0Z" fill="#fd9800"></path></g><g transform="translate(0, 0)"><path d="M648 0C615.6 59.7 583.2 119.4 565.9 183.9C548.5 248.4 546.3 317.6 518.6 376.8C490.9 435.9 437.8 484.9 380.9 524.2C323.9 563.6 263.1 593.4 199 612.5C134.9 631.5 67.4 639.8 0 648L0 0Z" fill="#ffe5c6"></path><path d="M432 0C410.4 39.8 388.8 79.6 377.3 122.6C365.7 165.6 364.2 211.8 345.7 251.2C327.3 290.6 291.9 323.2 253.9 349.5C216 375.8 175.4 395.6 132.7 408.3C89.9 421 45 426.5 0 432L0 0Z" fill="#ffb156"></path><path d="M216 0C205.2 19.9 194.4 39.8 188.6 61.3C182.8 82.8 182.1 105.9 172.9 125.6C163.6 145.3 145.9 161.6 127 174.7C108 187.9 87.7 197.8 66.3 204.2C45 210.5 22.5 213.3 0 216L0 0Z" fill="#fd9800"></path></g></svg>