<svg id="visual" viewBox="0 0 1920 1080" width="1920" height="1080" xmlns="http://www.w3.org/2000/svg" xmlns:xlink="http://www.w3.org/1999/xlink" version="1.1"><rect x="0" y="0" width="1920" height="1080" fill="#ffbc85"></rect><path d="M0 363L274 329L549 399L823 295L1097 397L1371 404L1646 274L1920 315L1920 0L1646 0L1371 0L1097 0L823 0L549 0L274 0L0 0Z" fill="#7b0000"></path><path d="M0 219L274 269L549 269L823 292L1097 262L1371 248L1646 336L1920 325L1920 0L1646 0L1371 0L1097 0L823 0L549 0L274 0L0 0Z" fill="#a33b03"></path><path d="M0 272L274 224L549 254L823 170L1097 244L1371 200L1646 194L1920 221L1920 0L1646 0L1371 0L1097 0L823 0L549 0L274 0L0 0Z" fill="#c86a00"></path><path d="M0 107L274 155L549 100L823 136L1097 129L1371 122L1646 107L1920 167L1920 0L1646 0L1371 0L1097 0L823 0L549 0L274 0L0 0Z" fill="#e69b00"></path><path d="M0 104L274 124L549 56L823 85L1097 98L1371 71L1646 62L1920 58L1920 0L1646 0L1371 0L1097 0L823 0L549 0L274 0L0 0Z" fill="#fccf08"></path></svg>