<svg id="visual" viewBox="0 0 1920 1080" width="1920" height="1080" xmlns="http://www.w3.org/2000/svg" xmlns:xlink="http://www.w3.org/1999/xlink" version="1.1"><rect x="0" y="0" width="1920" height="1080" fill="#fff77a"></rect><path d="M917 0L917.8 30C918.7 60 920.3 120 927.8 180C935.3 240 948.7 300 949.3 360C950 420 938 480 923 540C908 600 890 660 886.2 720C882.3 780 892.7 840 905 900C917.3 960 931.7 1020 938.8 1050L946 1080L0 1080L0 1050C0 1020 0 960 0 900C0 840 0 780 0 720C0 660 0 600 0 540C0 480 0 420 0 360C0 300 0 240 0 180C0 120 0 60 0 30L0 0Z" fill="#f7870f" stroke-linecap="round" stroke-linejoin="miter"></path></svg>